# xmcd
#
# Track frame offsets: 
#        150
#        12553
#        25142
#        44118
#        69383
#        91184
#        137045
#        150472
#        156146
#        174485
#        198682
#        213155
#        225468
#        238827
#        248398
#        266688
#        284785
#
# Disc length: 4059 seconds
#
# Revision: 0
# Processed by: cddbd v1.5.2PL0 Copyright (c) Steve Scherf et al.
# Submitted via: ExactAudioCopy v1.0b3
#
DISCID=ed0fd911
DTITLE=Various Artist - Top 100 R&B Hits
DYEAR=2012
DGENRE=R&B
TTITLE0=The Platters - Twilight Time
TTITLE1=The Drifters - On Broadway
TTITLE2=Heatwave - The Groove Line
TTITLE3=Thelma Houston - Don't Leave me This Way
TTITLE4=Teddy Pendergrass - Love TKO 
TTITLE5=Marvin Gaye - Sexual Healing (live)
TTITLE6=The Spinners - Games People Play (live)
TTITLE7=James Brown - Cold Sweat (live)
TTITLE8=Chaka Khan - Sweet Thang (live)
TTITLE9=Kool and The Gang - Cherish (live)
TTITLE10=Harold Melvin and The Blue Notes - Bad Luck
TTITLE11=The Miracles - I Second That Emotion
TTITLE12=Maxine Nightingale - Lead Me On
TTITLE13=The Stylistics - You'll Never Get To Heaven If You Break My H
TTITLE13=eart (live)
TTITLE14=The O'Jays - Used To Be My Girl
TTITLE15=Peaches and Herb - Reunited
TTITLE16=Teddy Pendergrass - Can't We Try
EXTD=
EXTT0=
EXTT1=
EXTT2=
EXTT3=
EXTT4=
EXTT5=
EXTT6=
EXTT7=
EXTT8=
EXTT9=
EXTT10=
EXTT11=
EXTT12=
EXTT13=
EXTT14=
EXTT15=
EXTT16=
PLAYORDER=
